<?xml version="1.0" standalone="no"?>
<!DOCTYPE svg PUBLIC "-//W3C//DTD SVG 20010904//EN"
 "http://www.w3.org/TR/2001/REC-SVG-20010904/DTD/svg10.dtd">
<svg version="1.0" xmlns="http://www.w3.org/2000/svg"
 width="600.000000pt" height="600.000000pt" viewBox="0 0 600.000000 600.000000"
 preserveAspectRatio="xMidYMid meet">
<metadata>
Created by potrace 1.11, written by Peter Selinger 2001-2013
</metadata>
<g transform="translate(0.000000,600.000000) scale(0.100000,-0.100000)"
fill="#000000" stroke="none">
<path d="M3530 4584 c-41 -7 -93 -16 -115 -19 -39 -6 -96 -16 -205 -37 -30 -6
-89 -19 -130 -30 -41 -11 -88 -23 -104 -25 -16 -3 -39 -8 -50 -12 -23 -9 -109
-14 -253 -15 -51 -1 -93 -5 -93 -10 0 -9 313 -1 341 8 8 3 32 8 54 11 22 3 54
10 70 15 17 5 41 11 55 14 14 3 81 16 150 30 176 35 307 57 363 60 57 4 247
-24 367 -53 47 -11 111 -22 144 -25 42 -3 64 -11 78 -25 15 -17 23 -19 39 -10
13 6 25 7 32 1 7 -5 35 -17 62 -27 28 -10 55 -22 61 -27 6 -5 18 -6 26 -3 8 3
27 -9 47 -30 17 -20 36 -33 42 -29 6 3 24 -1 42 -9 18 -9 52 -18 77 -22 25 -4
51 -11 57 -17 7 -6 19 -8 27 -5 8 3 30 -9 50 -29 19 -19 42 -34 51 -34 10 0
37 -22 62 -50 25 -27 50 -50 55 -50 6 0 3 9 -7 20 -10 11 -13 20 -7 20 7 0 24
-19 38 -42 32 -51 43 -59 63 -48 25 13 34 10 69 -21 18 -16 37 -29 42 -29 6 0
10 -9 10 -20 0 -25 20 -27 21 -2 0 13 2 13 9 -5 5 -12 36 -43 69 -70 64 -52
71 -62 77 -108 2 -16 9 -52 15 -78 6 -26 8 -51 5 -54 -3 -4 -6 1 -6 9 0 18
-24 41 -33 31 -4 -3 -2 -12 4 -20 8 -9 8 -13 0 -13 -7 0 -8 -8 -1 -25 6 -15 6
-25 0 -25 -5 0 -15 19 -21 43 -17 57 -29 68 -30 27 -1 -19 -1 -39 0 -44 1 -4
-6 -20 -15 -34 -29 -44 -23 -134 15 -222 39 -93 34 -87 106 -134 54 -35 154
-115 196 -156 8 -8 36 -31 62 -50 25 -19 46 -37 46 -40 0 -3 -11 -13 -25 -24
-20 -14 -31 -16 -48 -8 -21 9 -62 9 -111 -2 -11 -3 -26 -5 -32 -5 -14 -1 -18
-33 -6 -45 4 -3 8 -25 9 -49 1 -23 9 -55 17 -71 12 -22 13 -34 6 -49 -10 -17
-19 -18 -95 -13 -94 6 -133 20 -183 69 -76 71 -109 82 -148 46 -21 -21 -22
-23 -6 -50 18 -30 43 -41 64 -28 39 25 106 -4 74 -31 -22 -19 -70 -15 -116 10
-38 19 -40 19 -35 2 6 -18 3 -18 -66 -5 -40 7 -85 17 -100 23 -16 5 -28 5 -28
0 0 -15 -41 -23 -54 -10 -8 10 -8 11 2 6 6 -4 12 -3 12 1 0 15 -23 33 -40 32
-10 0 -11 -2 -2 -6 19 -8 14 -23 -8 -23 -11 0 -20 5 -20 10 0 6 -4 10 -10 10
-6 0 -5 -10 2 -25 15 -33 4 -42 -27 -21 -26 17 -26 17 -23 -5 2 -12 -3 -24
-11 -27 -9 -3 -11 0 -6 7 4 7 -2 21 -14 32 -26 25 -34 24 -21 -2 15 -28 11
-30 -33 -16 -24 8 -37 18 -37 29 0 10 -5 18 -11 18 -6 0 -8 -8 -4 -19 3 -11 2
-22 -3 -25 -5 -3 -13 9 -16 27 l-7 32 -15 -31 -15 -31 -87 34 c-121 47 -134
53 -100 48 15 -2 30 1 33 6 4 5 -4 9 -15 9 -12 0 -33 9 -47 20 -15 11 -29 18
-32 14 -3 -3 2 -11 12 -18 21 -16 23 -30 2 -22 -18 6 -20 -15 -4 -31 14 -14 3
-33 -19 -33 -9 0 -28 -12 -41 -25 -18 -20 -20 -25 -7 -25 9 0 16 4 16 9 0 5 8
11 18 15 9 3 24 9 32 13 13 5 13 4 1 -11 -21 -26 -71 -48 -92 -43 -22 6 -25
-3 -7 -21 9 -9 6 -12 -14 -12 -30 0 -48 -17 -48 -46 0 -4 -7 -1 -15 6 -20 17
-32 5 -15 -15 10 -12 10 -15 -2 -15 -8 0 -19 5 -25 11 -8 8 -13 8 -17 0 -4 -6
-2 -11 3 -11 6 0 11 -5 11 -11 0 -6 -9 -8 -20 -4 -21 7 -28 -10 -7 -18 24 -10
-15 -25 -60 -23 -34 2 -40 0 -32 -11 6 -7 18 -13 27 -13 8 0 13 -3 10 -6 -3
-3 -26 0 -49 7 -24 7 -51 13 -59 14 -8 2 -32 10 -52 19 -29 12 -38 13 -38 4 0
-7 9 -19 20 -26 34 -21 24 -34 -20 -28 -42 6 -55 -8 -19 -19 25 -8 17 -18 -17
-23 -16 -2 -38 7 -60 23 -33 25 -50 21 -19 -5 21 -17 19 -25 -8 -37 -23 -11
-23 -10 -21 41 1 28 7 80 13 115 6 40 7 70 1 80 -7 11 -9 1 -10 -36 0 -28 -5
-55 -11 -59 -9 -5 -10 6 -5 38 5 34 3 48 -8 57 -13 11 -14 9 -8 -16 9 -33 4
-73 -8 -73 -5 0 -16 -3 -25 -6 -9 -4 -15 -3 -14 2 3 17 -1 34 -8 34 -5 0 -8
-27 -8 -60 0 -32 -5 -64 -11 -70 -9 -9 -10 -1 -4 29 4 23 3 41 -1 41 -5 0 -9
-13 -9 -30 0 -16 -4 -30 -10 -30 -5 0 -10 10 -10 22 0 26 -9 19 -15 -11 -4
-21 -6 -31 -21 -82 -6 -20 -3 -21 25 -16 33 7 42 -8 19 -31 -9 -9 -9 -12 0
-12 15 0 35 37 23 44 -8 6 26 86 37 86 3 0 2 -3 -1 -6 -3 -4 -2 -15 4 -26 8
-16 13 -17 25 -7 13 11 14 9 3 -15 -12 -25 -14 -26 -20 -9 -6 15 -10 11 -25
-22 -34 -80 -27 -222 16 -317 18 -40 20 -40 14 -10 -3 17 -3 32 -1 32 6 0 67
-104 67 -114 0 -4 -5 -4 -10 -1 -9 6 -4 -60 6 -76 2 -4 -2 -9 -10 -12 -20 -8
-26 -44 -9 -64 8 -10 12 -13 9 -6 -4 6 -2 14 3 17 5 4 21 -17 35 -46 14 -29
41 -82 61 -117 19 -35 35 -73 35 -85 0 -12 5 -28 11 -36 9 -12 10 -11 6 8 -3
12 -4 22 -2 22 7 0 92 -89 122 -128 31 -41 44 -92 23 -92 -5 0 -16 15 -23 33
-15 35 -106 139 -107 121 0 -6 23 -42 50 -79 28 -37 50 -72 50 -77 0 -4 -10
-6 -22 -4 -13 3 -45 7 -72 10 -64 7 -77 22 -81 87 -4 69 -2 65 -25 66 -12 1
-20 -4 -20 -13 0 -13 -40 -36 -49 -28 -1 1 -7 48 -11 103 -9 120 -22 145 -114
219 -65 53 -106 115 -106 161 0 30 17 18 25 -19 6 -29 64 -85 75 -73 3 3 0 8
-7 10 -6 2 -23 27 -37 56 -14 29 -47 79 -74 112 -61 76 -81 111 -117 207 -16
43 -37 88 -47 100 -14 18 -17 19 -12 4 6 -16 5 -17 -15 -7 -15 9 -20 18 -16
32 20 74 26 122 15 139 -8 12 -10 10 -10 -10 -2 -69 -8 -102 -20 -113 -10 -10
-11 5 -6 78 6 90 6 91 -23 125 -33 38 -42 24 -13 -18 25 -37 32 -56 22 -71 -5
-8 -17 6 -37 41 -38 67 -87 111 -53 48 12 -22 -13 -50 -26 -29 -4 8 -3 9 4 5
18 -11 15 22 -5 55 -10 16 -22 29 -27 29 -5 0 -6 -3 -3 -7 4 -3 0 -17 -8 -30
-12 -17 -13 -28 -5 -42 12 -24 13 -31 1 -31 -5 0 -12 9 -16 19 -3 11 -13 22
-22 25 -13 5 -14 4 -3 -9 16 -20 1 -19 -28 1 -20 14 -22 14 -22 -5 0 -10 5
-21 12 -23 8 -3 8 -9 0 -24 -10 -18 -11 -18 -17 -2 -9 22 -25 13 -25 -13 0
-12 -4 -17 -11 -13 -8 4 -9 -3 -4 -25 4 -20 3 -31 -4 -31 -6 0 -11 8 -11 18 0
21 -36 59 -46 49 -4 -3 1 -13 10 -22 22 -22 21 -47 -1 -43 -10 2 -22 -5 -28
-17 -8 -14 -18 -19 -39 -17 -22 3 -28 0 -23 -11 10 -26 -6 -29 -26 -5 -17 21
-18 21 -15 3 6 -34 -21 -45 -58 -23 -29 17 -35 18 -56 5 -41 -26 -79 -30 -95
-10 -13 17 -14 17 -8 -4 7 -26 -12 -31 -34 -10 -11 10 -14 9 -18 -1 -3 -6 -9
-10 -13 -7 -5 3 -6 13 -3 22 5 13 2 15 -11 10 -10 -4 -19 -1 -22 8 -4 8 -11
15 -16 15 -6 0 -3 -12 7 -26 19 -29 10 -49 -9 -21 -17 22 -30 22 -22 0 4 -13
1 -12 -13 4 -11 13 -25 23 -31 23 -10 0 -10 -3 0 -15 10 -12 9 -15 -4 -15 -10
0 -19 11 -22 30 -8 36 -27 41 -22 5 5 -36 -15 -35 -34 3 -22 45 -28 50 -22 18
7 -43 -6 -51 -33 -20 -21 26 -23 27 -18 7 8 -30 -21 -32 -30 -3 -3 11 -11 20
-16 20 -6 0 -8 -9 -4 -19 5 -18 3 -19 -25 -11 -18 5 -38 14 -44 19 -7 6 -16 8
-19 4 -4 -3 -15 2 -26 11 -15 13 -20 14 -24 4 -3 -10 -10 -8 -27 7 -21 18 -23
18 -17 2 6 -15 4 -16 -16 -5 -12 7 -27 12 -33 13 -7 0 -22 11 -34 25 -15 17
-20 20 -16 8 3 -10 1 -18 -5 -18 -36 0 -163 37 -213 61 -33 16 -67 27 -76 24
-9 -3 -25 4 -35 15 -10 11 -36 23 -57 26 -21 4 -38 9 -38 11 0 3 11 14 25 25
14 11 25 25 25 31 0 7 -19 -7 -41 -30 -22 -24 -42 -43 -44 -43 -2 0 2 16 8 35
6 19 16 35 22 35 7 0 19 8 26 18 11 14 11 15 -1 5 -8 -7 -18 -13 -23 -13 -6 0
11 22 37 50 49 52 55 70 31 90 -13 11 -15 8 -16 -21 0 -19 -3 -27 -6 -19 -9
24 -25 40 -34 35 -4 -3 -4 -17 1 -31 12 -30 2 -55 -12 -30 -15 27 -30 19 -23
-13 3 -17 2 -32 -4 -36 -6 -3 -11 0 -12 7 0 7 -7 -1 -15 -19 -9 -21 -19 -31
-28 -27 -11 4 -13 0 -9 -15 4 -16 1 -21 -14 -21 -16 0 -18 -6 -15 -37 4 -34 3
-36 -12 -24 -14 12 -16 10 -16 -13 0 -19 -5 -26 -16 -24 -11 2 -18 -5 -20 -19
-4 -25 -42 -68 -60 -68 -7 0 -22 -12 -34 -28 -12 -15 -38 -34 -58 -43 -20 -8
-60 -33 -89 -54 -29 -22 -64 -45 -77 -52 -14 -6 -23 -15 -20 -19 2 -5 -10 -12
-27 -17 -26 -6 -33 -14 -36 -37 -2 -15 -10 -43 -17 -60 -11 -26 -20 -32 -46
-33 -53 -1 -52 1 -66 -162 -3 -41 -1 -94 4 -117 8 -34 7 -43 -4 -43 -11 0 -11
-6 1 -33 8 -19 15 -45 17 -59 2 -14 11 -33 21 -42 9 -10 18 -20 18 -24 1 -4 3
-20 5 -36 2 -16 7 -33 13 -39 13 -13 34 2 24 17 -4 7 0 3 10 -7 10 -11 15 -28
12 -38 -3 -9 3 -32 14 -50 25 -40 15 -49 -43 -38 -46 8 -116 45 -116 60 0 5 5
18 12 29 16 26 10 30 -55 37 -38 4 -58 11 -63 22 -4 9 -8 89 -9 179 -4 213
-11 278 -41 341 -13 29 -24 63 -24 75 0 13 28 61 63 107 35 46 78 106 97 133
l33 49 17 -23 c17 -22 18 -23 23 -4 3 10 3 2 0 -20 -5 -36 -5 -38 16 -27 17
10 21 9 21 -3 0 -22 15 -27 45 -16 29 11 29 35 1 35 -10 0 -22 8 -28 18 -7 14
-13 15 -23 7 -10 -8 -14 -5 -18 13 -4 12 -4 33 0 45 7 29 -15 29 -27 0 -7 -18
-9 -13 -9 28 -1 28 -8 69 -17 89 -41 99 -45 183 -30 555 1 30 -3 89 -10 130
-16 99 -16 270 0 345 19 88 121 333 150 359 13 11 31 35 39 52 16 31 145 155
228 217 149 114 422 221 619 243 30 3 69 9 86 14 62 16 339 -4 509 -35 136
-26 277 -59 293 -69 11 -7 78 -18 72 -12 -6 6 -119 46 -145 51 -42 9 -71 15
-105 20 -19 3 -70 15 -113 26 -135 34 -263 48 -382 42 -60 -3 -137 -5 -169 -4
-33 0 -64 -3 -70 -8 -6 -4 -47 -14 -91 -20 -144 -22 -288 -81 -464 -190 -89
-55 -231 -171 -231 -188 0 -6 -13 -22 -29 -35 -53 -42 -191 -283 -196 -344 -2
-18 -10 -56 -19 -85 -9 -30 -27 -98 -40 -152 -20 -83 -21 -99 -9 -104 30 -12
-11 -107 -76 -175 -33 -36 -51 -47 -51 -30 0 4 16 25 36 47 61 69 86 104 82
116 -2 7 -21 -11 -42 -40 -40 -54 -60 -61 -62 -20 -6 87 -74 158 -155 159
-117 1 -185 -164 -112 -272 16 -24 38 -44 50 -46 48 -7 44 -26 -22 -96 -82
-87 -114 -150 -111 -217 1 -27 7 -54 14 -61 18 -18 21 -6 10 38 -7 23 -8 53
-3 70 l8 29 7 -25 c6 -22 9 -17 24 36 18 63 58 125 72 111 4 -4 -2 -27 -14
-51 -12 -24 -19 -51 -16 -60 3 -9 0 -33 -8 -54 -8 -21 -12 -50 -8 -67 7 -35 2
-57 -11 -49 -5 3 -7 10 -3 15 8 13 -4 59 -15 59 -9 0 -7 -50 4 -98 4 -15 2
-21 -5 -17 -6 4 -10 -4 -10 -17 0 -13 -7 -34 -16 -46 -21 -30 -5 -28 29 4 22
21 28 22 25 9 -5 -30 16 -25 46 12 26 31 29 41 29 106 0 43 5 79 13 92 7 11
15 54 18 95 2 41 7 83 11 92 9 22 69 68 96 73 36 7 160 108 177 144 36 73 43
35 27 -149 -16 -186 -4 -444 25 -499 29 -57 41 -118 25 -131 -6 -5 -17 -27
-23 -47 -7 -21 -44 -78 -82 -127 -89 -112 -104 -144 -86 -188 7 -18 11 -38 9
-45 -2 -6 4 -24 14 -39 15 -24 18 -52 19 -179 2 -140 12 -251 28 -302 7 -21
33 -36 65 -37 8 -1 23 -16 33 -35 11 -18 29 -42 41 -52 29 -24 122 -49 180
-49 41 0 47 3 53 24 6 27 -47 111 -104 160 -63 56 -77 96 -77 226 1 141 13
186 70 249 24 28 49 66 56 85 11 30 24 41 83 70 39 19 79 37 89 40 9 3 27 21
38 41 12 19 25 35 30 35 5 0 23 16 40 35 19 22 40 35 55 35 13 0 24 3 24 8 0
14 51 62 65 62 9 0 15 -10 15 -25 0 -13 15 -41 32 -61 30 -34 33 -43 33 -103
0 -52 -7 -82 -33 -145 l-34 -79 22 -44 c13 -27 30 -45 45 -49 38 -9 77 -60
130 -167 49 -100 51 -102 85 -102 19 0 35 5 35 10 0 6 -9 9 -21 7 -29 -3 -51
24 -85 109 -17 41 -36 80 -43 89 -7 8 -16 27 -20 41 -3 15 -15 37 -26 50 l-21
24 16 -39 c19 -49 19 -49 -7 -28 -54 43 -78 72 -78 96 0 14 14 60 31 103 17
43 32 89 33 103 3 33 -19 96 -49 142 -29 44 -30 48 -10 48 12 0 14 4 5 19 -15
28 0 32 42 11 26 -12 38 -14 42 -6 6 14 66 -49 66 -70 0 -11 6 -15 19 -11 19
5 41 -26 41 -58 0 -18 -17 -20 -23 -2 -2 6 -7 9 -11 5 -4 -3 9 -21 28 -39 20
-18 36 -39 36 -47 0 -8 6 -12 15 -8 10 3 15 -1 15 -12 0 -22 -10 -36 -34 -49
-29 -16 -29 -42 0 -49 20 -5 24 -12 24 -44 0 -22 -5 -40 -12 -43 -9 -3 -8 -10
6 -26 11 -11 16 -21 13 -21 -3 0 5 -24 18 -53 14 -29 26 -64 28 -77 2 -14 14
-30 25 -36 12 -6 30 -18 39 -27 10 -8 42 -27 70 -42 29 -14 53 -30 53 -35 0
-5 19 -30 41 -56 41 -47 41 -48 19 -58 -18 -8 -24 -6 -33 10 -7 10 -12 28 -12
38 0 11 -7 21 -15 24 -13 5 -13 3 0 -13 14 -17 13 -17 -10 -10 l-25 7 23 -21
c37 -36 30 -40 -64 -33 -12 1 -45 17 -72 36 -47 31 -50 32 -40 10 24 -52 142
-79 251 -59 43 8 48 27 18 75 -23 38 -109 103 -167 127 -49 20 -73 58 -118
192 -23 67 -23 69 -6 122 18 58 51 128 82 171 19 27 28 134 13 157 -8 14 28 9
47 -6 7 -6 94 -27 193 -47 224 -44 225 -44 310 -51 38 -4 76 -8 84 -11 18 -6
404 -6 446 0 17 2 73 7 126 11 53 3 105 8 115 10 11 2 36 4 56 4 20 1 43 8 52
16 14 14 17 13 30 -12 19 -37 46 -60 74 -65 18 -2 29 -17 47 -63 14 -33 44
-89 68 -125 30 -45 47 -84 56 -127 6 -34 18 -74 26 -90 21 -40 84 -102 125
-123 43 -22 70 -88 78 -189 6 -77 23 -109 60 -113 15 -2 26 -6 24 -11 -5 -15
28 -64 55 -83 22 -14 51 -19 131 -21 62 -2 102 1 103 7 1 6 2 16 3 23 0 6 11
13 22 15 12 2 32 14 45 28 16 17 33 24 60 24 21 0 40 3 43 8 8 14 -35 94 -68
122 -18 16 -54 66 -81 110 -61 104 -65 143 -22 230 29 57 30 65 20 113 -9 45
-7 60 14 122 22 64 38 130 63 270 16 87 19 92 62 119 24 14 70 50 103 80 113
105 166 115 348 67 l108 -28 97 24 c127 31 184 33 257 10 51 -16 78 -18 175
-12 63 4 116 8 118 10 2 1 18 -1 37 -5 19 -4 38 -3 43 2 6 6 22 6 43 0 45 -12
82 -6 186 27 l88 28 3 44 c2 27 11 51 23 62 26 24 33 60 19 101 -12 38 -71 96
-96 96 -9 0 -43 29 -77 66 -33 36 -94 88 -135 115 l-75 50 2 80 c3 95 7 109
32 109 24 0 24 16 0 29 -17 10 -18 14 -6 47 11 32 9 48 -13 130 -14 52 -23 97
-20 100 16 15 69 5 103 -22 33 -25 47 -28 104 -29 36 0 107 6 156 14 89 14 91
15 138 65 26 28 47 56 47 64 0 21 46 83 72 96 12 6 27 24 33 39 19 57 -38 108
-135 121 -62 8 -108 25 -155 55 -32 21 -52 26 -101 25 -76 -1 -139 -30 -243
-113 -58 -46 -79 -58 -95 -52 -12 4 -41 8 -66 10 -83 3 -141 21 -152 47 -6 13
-14 21 -19 19 -4 -3 -10 4 -14 15 -7 23 -25 27 -25 5 0 -25 -17 -17 -30 14
-10 25 -17 29 -45 28 -28 -1 -38 4 -57 33 -23 33 -71 59 -52 28 4 -7 -18 11
-49 40 -54 50 -96 69 -84 37 10 -25 -12 -27 -24 -2 -8 18 -17 22 -38 19 -22
-3 -34 5 -69 47 -42 49 -44 50 -66 35 -23 -14 -27 -13 -87 25 -60 38 -64 39
-71 21 -6 -16 -12 -18 -33 -10 -13 5 -36 17 -50 26 -20 13 -28 14 -39 5 -11
-10 -21 -9 -45 3 -16 9 -41 16 -56 16 -14 0 -25 5 -25 10 0 6 -17 10 -37 10
-21 1 -65 7 -98 16 -83 21 -311 25 -405 8z m2171 -383 c30 -16 89 -37 133 -46
97 -19 110 -26 126 -65 12 -30 11 -32 -47 -93 -33 -34 -63 -72 -67 -85 -5 -15
-16 -22 -34 -23 -15 0 -36 -2 -47 -4 -11 -2 -35 -7 -54 -10 -53 -10 -22 -24
36 -16 29 4 50 4 47 -1 -3 -4 -18 -8 -35 -8 -18 0 -29 -5 -29 -14 0 -9 -20
-15 -65 -20 -36 -4 -71 -9 -79 -12 -9 -3 -17 3 -21 16 -5 15 -12 19 -23 15
-10 -4 -23 -9 -29 -12 -7 -3 -13 2 -13 11 0 9 -8 16 -18 16 -10 0 -29 12 -43
27 -15 17 -17 22 -5 13 17 -13 19 -13 14 0 -2 8 -15 17 -28 18 -13 2 -33 10
-45 18 -12 8 -24 12 -27 8 -3 -3 -18 7 -33 21 -16 17 -33 25 -45 22 -21 -5
-147 88 -131 97 5 3 44 -3 87 -13 44 -11 93 -22 109 -24 54 -9 145 -48 145
-63 0 -27 45 -39 82 -21 18 8 48 18 65 22 18 3 35 11 39 16 3 6 -6 7 -23 4
-15 -3 -53 -8 -83 -11 -41 -4 -51 -3 -40 5 23 17 -8 36 -83 51 -107 21 -121
39 -62 84 67 51 189 102 251 105 11 1 45 -12 75 -28z m-348 -568 c-3 -7 -9
-13 -13 -13 -17 0 -20 19 -8 40 12 18 13 18 19 2 3 -9 4 -23 2 -29z m-7 -34
c5 1 9 -7 9 -16 0 -11 -11 -19 -30 -23 -16 -4 -40 -12 -52 -19 -37 -19 -28 6
14 45 23 21 39 30 44 23 3 -6 10 -10 15 -10z m-5096 -132 c67 -45 92 -130 58
-199 -10 -21 -23 -38 -29 -38 -6 0 -6 6 0 19 18 33 20 114 4 154 -28 70 -106
83 -155 26 -27 -33 -30 -45 -22 -116 3 -28 15 -52 34 -73 33 -35 24 -49 -13
-20 -41 33 -62 115 -45 178 23 84 100 115 168 69z m5088 -32 c2 -12 0 -16 -5
-9 -12 15 -41 25 -48 15 -2 -5 3 -11 14 -14 17 -4 23 -39 8 -53 -9 -9 -39 64
-32 76 11 17 60 6 63 -15z m-5108 5 c15 0 41 -50 46 -89 4 -26 0 -52 -11 -74
-17 -37 -24 -38 -88 -12 -24 10 -47 57 -47 95 0 38 51 95 76 86 9 -3 19 -6 24
-6z m-6 -282 c-25 -34 -74 -71 -74 -58 0 7 15 27 34 46 39 39 67 47 40 12z
m5487 -170 c5 -20 -1 -43 -22 -88 -16 -34 -29 -70 -29 -81 0 -14 -7 -19 -27
-19 -16 0 -48 -9 -72 -20 -24 -11 -48 -20 -53 -20 -5 0 -8 26 -5 62 4 58 5 61
30 62 30 2 35 -15 12 -34 -23 -19 -18 -29 15 -27 29 2 30 3 31 60 1 31 3 62 4
67 1 6 3 17 4 26 0 8 5 13 9 10 5 -3 21 4 38 15 37 25 56 21 65 -13z m-192 -9
c-11 -11 -23 -18 -26 -15 -9 8 17 36 33 36 10 0 7 -7 -7 -21z m56 -27 c-3 -3
-11 0 -18 7 -9 10 -8 11 6 5 10 -3 15 -9 12 -12z m-1489 -338 c-11 -7 -22 -12
-25 -9 -2 3 4 12 15 19 10 8 21 12 24 9 3 -2 -4 -11 -14 -19z m-2866 1 c-7 -8
-17 -15 -22 -15 -6 0 -5 7 2 15 7 8 17 15 22 15 6 0 5 -7 -2 -15z m135 -65
c-3 -5 -10 -10 -16 -10 -5 0 -9 5 -9 10 0 6 7 10 16 10 8 0 12 -4 9 -10z m-45
-4 c0 -3 -4 -8 -10 -11 -5 -3 -10 -1 -10 4 0 6 5 11 10 11 6 0 10 -2 10 -4z
m270 -85 c0 -6 -4 -13 -10 -16 -5 -3 -10 1 -10 9 0 9 5 16 10 16 6 0 10 -4 10
-9z m-110 -20 c0 -5 -7 -12 -16 -15 -14 -5 -15 -4 -4 9 14 17 20 19 20 6z m50
-1 c0 -5 -4 -10 -10 -10 -5 0 -10 5 -10 10 0 6 5 10 10 10 6 0 10 -4 10 -10z
m2270 -21 c7 -11 9 -23 6 -27 -3 -3 -6 0 -6 6 0 7 -7 12 -15 12 -21 0 -19 -36
3 -52 10 -7 22 -22 27 -33 8 -16 10 -12 13 22 3 41 4 42 28 31 25 -12 25 -13
19 -102 -5 -77 -4 -88 7 -71 12 18 14 13 18 -45 7 -86 -6 -166 -31 -202 -18
-25 -20 -38 -14 -86 10 -85 16 -106 26 -91 6 10 14 0 29 -34 16 -36 18 -51 10
-67 -9 -17 -6 -25 14 -45 14 -14 32 -25 40 -25 16 0 96 -75 96 -91 0 -12 -68
-3 -135 18 -94 30 -153 84 -153 143 -1 19 -6 51 -11 70 -15 49 -14 121 2 118
22 -5 18 47 -9 107 -28 64 -36 147 -16 167 9 9 12 1 12 -34 0 -26 5 -50 10
-53 16 -10 22 19 11 48 -6 14 -13 59 -16 99 -6 76 -19 151 -31 181 -4 12 -2
17 7 15 8 -2 15 7 17 20 4 28 28 29 42 1z m-2270 -23 c0 -8 -10 -13 -25 -13
-41 0 -28 19 18 26 4 0 7 -5 7 -13z m1993 -11 c-3 -9 -8 -14 -10 -11 -3 3 -2
9 2 15 9 16 15 13 8 -4z m101 -18 c34 0 67 2 73 6 15 9 23 -15 30 -88 10 -92
9 -106 -6 -167 -13 -55 -13 -62 9 -127 21 -62 23 -73 11 -108 -12 -36 -9 -132
5 -154 3 -5 3 -9 0 -9 -3 0 -26 40 -51 89 -38 73 -47 101 -49 149 -2 48 -12
79 -50 159 -44 89 -49 106 -52 181 -3 57 -1 81 7 77 5 -4 38 -7 73 -8z m357
-16 c-6 -10 -8 -21 -5 -24 3 -3 -1 -16 -10 -29 -8 -12 -18 -51 -22 -85 -4 -38
-11 -60 -17 -56 -11 7 -2 99 12 117 5 6 15 30 22 54 6 23 16 42 21 42 5 0 4
-8 -1 -19z m-2422 -7 c-6 -7 -23 -10 -42 -7 -53 8 -52 21 2 20 38 -1 48 -4 40
-13z m-770 -78 c-2 -2 -15 -9 -29 -15 -24 -11 -24 -11 -6 3 16 13 49 24 35 12z
m-159 -166 c-6 -11 -13 -20 -16 -20 -2 0 0 9 6 20 6 11 13 20 16 20 2 0 0 -9
-6 -20z"/>
<path d="M5644 3955 c-18 -13 -18 -14 4 -8 12 3 25 9 28 14 8 14 -10 11 -32
-6z"/>
<path d="M5659 3928 c-37 -22 -37 -29 0 -18 31 9 71 28 71 35 0 10 -45 -1 -71
-17z"/>
<path d="M5562 3923 c4 -24 24 -27 24 -3 0 11 -6 20 -14 20 -7 0 -12 -8 -10
-17z"/>
<path d="M5610 3840 c0 -5 6 -10 14 -10 8 0 18 5 21 10 3 6 -3 10 -14 10 -12
0 -21 -4 -21 -10z"/>
<path d="M5653 2989 c-13 -5 -23 -10 -24 -11 0 -2 -3 -32 -6 -68 -5 -60 -4
-63 13 -50 14 12 64 109 64 124 0 10 -27 13 -47 5z"/>
<path d="M3840 2359 c-10 -105 -10 -133 -2 -124 12 12 19 111 9 121 -4 4 -7 5
-7 3z"/>
<path d="M2548 4443 c7 -3 16 -2 19 1 4 3 -2 6 -13 5 -11 0 -14 -3 -6 -6z"/>
<path d="M4590 4250 c0 -13 5 -18 14 -14 8 3 12 12 9 20 -8 21 -23 17 -23 -6z"/>
<path d="M4630 4246 c0 -16 28 -42 36 -33 8 7 -14 47 -26 47 -6 0 -10 -6 -10
-14z"/>
<path d="M4690 4218 c0 -7 5 -20 10 -28 8 -13 10 -12 10 3 0 9 0 20 1 24 0 4
-4 9 -10 11 -6 2 -11 -2 -11 -10z"/>
<path d="M4752 4188 c2 -12 8 -23 15 -25 6 -3 10 4 8 14 -2 10 -4 21 -4 26 -1
4 -6 7 -12 7 -6 0 -9 -10 -7 -22z"/>
<path d="M4794 4146 c6 -35 20 -58 55 -89 17 -15 31 -34 31 -43 0 -11 5 -14
16 -10 9 3 18 6 20 6 3 0 -18 23 -45 51 -28 28 -48 55 -45 60 9 15 -6 49 -22
49 -10 0 -13 -8 -10 -24z"/>
<path d="M4850 4136 c0 -8 5 -18 10 -21 6 -3 10 1 10 9 0 8 -4 18 -10 21 -5 3
-10 -1 -10 -9z"/>
<path d="M4905 4093 c2 -10 4 -22 4 -27 1 -6 6 -5 12 1 13 13 5 43 -10 43 -5
0 -8 -8 -6 -17z"/>
<path d="M4400 3990 c-102 -27 -201 -60 -287 -95 -39 -15 -43 -15 -75 1 -24
13 -53 16 -113 15 -113 -3 -137 -6 -162 -19 -50 -27 -193 -237 -193 -283 0
-37 -13 -63 -57 -112 -32 -36 -34 -42 -31 -99 3 -56 6 -63 38 -89 46 -37 109
-40 230 -9 47 12 123 13 252 5 107 -8 108 -7 147 19 59 41 121 141 121 195 0
56 106 171 180 196 55 18 103 52 95 66 -4 5 4 9 17 9 30 0 42 10 46 36 5 37
-83 51 -162 24 -39 -13 -126 -102 -156 -159 -10 -21 -30 -42 -43 -48 -19 -9
-27 -22 -32 -55 -10 -59 -47 -138 -78 -167 -14 -13 -24 -28 -21 -35 6 -16 -16
-45 -23 -29 -3 9 -13 6 -33 -9 -30 -21 -32 -21 -210 -5 -14 1 -56 -4 -95 -12
-38 -8 -101 -14 -139 -15 -63 -1 -70 1 -89 26 -10 14 -21 44 -22 66 -2 35 3
46 41 86 36 37 44 52 44 83 1 43 39 129 57 126 6 -1 16 10 21 26 6 15 27 51
47 79 29 41 45 54 78 62 23 6 51 14 62 17 36 11 140 4 179 -12 35 -15 41 -15
94 6 82 31 283 99 312 106 14 3 37 6 52 7 15 1 33 7 40 14 19 19 -12 14 -132
-18z m-203 -542 c-3 -8 -6 -5 -6 6 -1 11 2 17 5 13 3 -3 4 -12 1 -19z m-13
-35 c4 -10 4 -14 0 -10 -4 4 -16 0 -26 -10 -13 -11 -18 -12 -18 -3 0 10 25 37
36 40 1 0 5 -8 8 -17z"/>
<path d="M3935 3830 c3 -5 18 -10 33 -9 24 0 25 1 7 9 -28 12 -47 12 -40 0z"/>
<path d="M3892 3818 c5 -15 28 -18 29 -3 0 6 -7 12 -17 13 -10 3 -15 -1 -12
-10z"/>
<path d="M4197 3680 c-9 -14 -17 -37 -17 -52 0 -16 -5 -27 -12 -25 -13 2 -18
-41 -7 -68 4 -11 8 -14 8 -7 1 8 10 25 20 39 20 24 37 100 29 124 -3 8 -10 4
-21 -11z"/>
<path d="M4920 3610 c0 -5 7 -10 16 -10 8 0 12 5 9 10 -3 6 -10 10 -16 10 -5
0 -9 -4 -9 -10z"/>
<path d="M4810 3580 c0 -7 24 -20 36 -20 13 0 1 19 -16 23 -11 3 -20 2 -20 -3z"/>
<path d="M4910 3583 c0 -5 5 -14 12 -21 9 -9 8 -12 -5 -12 -15 0 -16 -3 -6
-21 10 -19 9 -20 -13 -14 -20 7 -21 6 -10 -8 10 -12 11 -21 3 -34 -9 -15 -10
-16 -11 -2 0 9 -6 22 -14 28 -12 10 -13 9 -9 -8 4 -16 1 -19 -14 -15 -11 3
-35 -1 -54 -9 -33 -15 -33 -15 -7 -16 15 -1 30 -5 33 -11 9 -14 -15 -12 -45 3
-21 11 -32 11 -65 0 -21 -7 -42 -19 -46 -25 -12 -19 2 -39 22 -33 13 4 19 1
19 -8 0 -8 9 -17 20 -20 14 -4 20 0 20 11 0 11 3 13 8 6 23 -35 92 -40 92 -7
0 11 11 5 34 -19 38 -39 76 -55 76 -32 0 8 -7 17 -15 20 -8 4 -15 12 -15 19 0
8 -9 17 -20 20 -25 8 -26 31 -2 37 13 4 23 22 31 54 7 27 18 52 24 56 9 6 8
14 -3 34 -15 27 -40 44 -40 27z"/>
<path d="M4838 3533 c7 -3 16 -2 19 1 4 3 -2 6 -13 5 -11 0 -14 -3 -6 -6z"/>
<path d="M4124 3463 c-30 -37 -33 -44 -14 -32 29 19 66 66 58 74 -3 3 -23 -16
-44 -42z"/>
<path d="M4626 3402 c-3 -6 -1 -14 5 -17 14 -9 20 -2 10 14 -6 8 -11 9 -15 3z"/>
<path d="M4517 3363 c8 -23 33 -53 45 -53 18 0 6 28 -22 48 -25 19 -29 20 -23
5z"/>
<path d="M4558 3363 c16 -29 40 -46 57 -39 24 9 18 20 -17 36 -18 7 -37 15
-41 18 -5 2 -4 -4 1 -15z"/>
<path d="M4595 3370 c3 -5 8 -10 11 -10 2 0 4 5 4 10 0 6 -5 10 -11 10 -5 0
-7 -4 -4 -10z"/>
<path d="M4172 3173 c0 -10 3 -29 8 -43 5 -14 11 -38 15 -55 l7 -30 9 24 c6
14 7 32 3 40 -4 9 -6 24 -5 34 2 18 -15 47 -29 47 -3 0 -7 -8 -8 -17z"/>
<path d="M5342 3027 c-9 -11 -10 -17 -2 -22 15 -9 23 -1 18 21 -3 15 -4 16
-16 1z"/>
<path d="M4200 3015 c7 -8 19 -15 27 -15 13 0 13 3 3 15 -7 8 -19 15 -27 15
-13 0 -13 -3 -3 -15z"/>
<path d="M5370 3000 c0 -11 5 -20 10 -20 6 0 10 9 10 20 0 11 -4 20 -10 20 -5
0 -10 -9 -10 -20z"/>
<path d="M5408 3004 c-5 -4 -8 -16 -8 -28 0 -14 3 -17 11 -9 6 6 9 19 7 28 -1
9 -6 13 -10 9z"/>
<path d="M4310 2988 c0 -7 9 -28 20 -46 20 -33 58 -55 116 -67 l29 -6 -30 25
c-16 14 -44 29 -61 32 -23 4 -33 13 -40 37 -9 31 -34 50 -34 25z"/>
<path d="M4210 2970 c14 -11 34 -20 45 -20 18 0 18 2 -5 20 -14 11 -34 20 -45
20 -18 0 -18 -2 5 -20z"/>
<path d="M3450 2959 c0 -5 4 -8 9 -4 5 3 13 -4 16 -16 4 -11 9 -18 12 -16 7 8
-16 47 -27 47 -6 0 -10 -5 -10 -11z"/>
<path d="M1486 2933 c8 -35 20 -48 29 -33 11 17 -4 60 -20 60 -12 0 -14 -7 -9
-27z"/>
<path d="M3529 2941 c9 -15 7 -20 -10 -24 -20 -5 -20 -6 -3 -32 20 -30 21 -30
27 14 6 36 0 61 -14 61 -6 0 -5 -8 0 -19z"/>
<path d="M4200 2946 c0 -10 71 -47 82 -44 6 2 -4 14 -24 26 -33 20 -58 28 -58
18z"/>
<path d="M1450 2890 c0 -25 4 -39 10 -35 6 3 10 19 10 35 0 16 -4 32 -10 35
-6 4 -10 -10 -10 -35z"/>
<path d="M4035 2910 c-4 -6 -4 -10 -1 -10 2 0 11 -3 20 -6 9 -3 16 -2 16 4 0
14 -28 23 -35 12z"/>
<path d="M1398 2855 c-2 -25 0 -45 5 -45 12 0 25 42 19 62 -9 35 -20 27 -24
-17z"/>
<path d="M4807 2875 c-25 -18 -15 -55 13 -48 14 4 18 13 17 34 -2 33 -5 34
-30 14z"/>
<path d="M4030 2862 c0 -5 11 -19 25 -32 20 -18 28 -21 37 -12 9 9 8 12 -4 12
-9 0 -18 9 -21 20 -5 19 -37 29 -37 12z"/>
<path d="M4863 2845 c0 -8 6 -16 14 -19 15 -6 15 -4 7 18 -8 20 -21 21 -21 1z"/>
<path d="M3482 2823 c6 -15 20 -37 30 -48 19 -20 19 -19 0 24 -10 25 -24 47
-30 49 -10 3 -10 -3 0 -25z"/>
<path d="M4900 2830 c0 -5 3 -11 8 -11 4 -1 23 -3 42 -5 33 -3 34 -2 16 11
-22 17 -66 20 -66 5z"/>
<path d="M1470 2779 c0 -8 15 -13 33 -10 4 0 7 -3 7 -8 0 -4 10 -6 23 -4 15 3
37 -7 67 -31 48 -38 58 -40 41 -8 -20 38 -73 67 -123 68 -27 1 -48 -2 -48 -7z"/>
<path d="M4061 2779 c18 -11 60 -11 79 1 10 6 -3 9 -39 8 -36 0 -49 -3 -40 -9z"/>
<path d="M3587 2760 c3 -11 7 -20 9 -20 2 0 4 9 4 20 0 11 -4 20 -9 20 -5 0
-7 -9 -4 -20z"/>
<path d="M1410 2760 c-22 -7 -21 -8 13 -9 23 -1 36 3 32 9 -7 11 -10 11 -45 0z"/>
<path d="M2926 2761 c-4 -7 -5 -15 -2 -18 9 -9 19 4 14 18 -4 11 -6 11 -12 0z"/>
<path d="M2964 2734 c3 -9 6 -18 6 -20 0 -3 4 -3 10 1 11 7 2 35 -12 35 -6 0
-7 -7 -4 -16z"/>
<path d="M3752 2730 c1 -13 9 -25 16 -28 17 -5 15 23 -4 39 -14 11 -15 10 -12
-11z"/>
<path d="M1418 2723 c6 -2 18 -2 25 0 6 3 1 5 -13 5 -14 0 -19 -2 -12 -5z"/>
<path d="M3720 2712 c0 -21 21 -65 27 -58 14 14 10 35 -8 52 -10 9 -19 12 -19
6z"/>
<path d="M3530 2664 c0 -8 5 -12 10 -9 6 3 10 10 10 16 0 5 -4 9 -10 9 -5 0
-10 -7 -10 -16z"/>
<path d="M3700 2648 c0 -16 5 -28 10 -28 13 0 13 20 0 40 -8 12 -10 9 -10 -12z"/>
<path d="M2806 2644 c-8 -22 1 -31 16 -16 9 9 9 15 1 23 -7 7 -12 5 -17 -7z"/>
<path d="M3652 2619 c-7 -11 -10 -30 -6 -41 4 -14 2 -18 -5 -14 -21 13 -11
-20 12 -42 33 -31 45 -27 16 4 -16 19 -20 28 -11 31 6 3 10 9 6 14 -3 5 2 9
11 9 12 0 15 5 11 16 -3 9 -6 22 -6 30 0 20 -13 17 -28 -7z"/>
<path d="M2761 2604 c-7 -8 -11 -18 -8 -21 9 -9 48 8 44 20 -5 17 -21 18 -36
1z"/>
<path d="M3920 2612 c0 -12 19 -26 26 -19 2 2 -2 10 -11 17 -9 8 -15 8 -15 2z"/>
<path d="M2698 2583 c7 -3 16 -2 19 1 4 3 -2 6 -13 5 -11 0 -14 -3 -6 -6z"/>
<path d="M3317 2524 c-4 -21 -2 -43 3 -48 7 -7 10 -5 11 5 0 7 2 24 3 36 5 40
-11 46 -17 7z"/>
<path d="M2630 2541 c0 -6 13 -17 30 -26 34 -18 44 -19 35 -5 -10 16 -65 42
-65 31z"/>
<path d="M2700 2540 c0 -5 9 -10 21 -10 11 0 17 5 14 10 -3 6 -13 10 -21 10
-8 0 -14 -4 -14 -10z"/>
<path d="M3360 2504 c0 -21 4 -33 10 -29 12 7 10 65 -2 65 -4 0 -8 -16 -8 -36z"/>
<path d="M3393 2502 c-6 -23 -7 -45 -2 -47 11 -7 22 35 17 66 -3 19 -6 15 -15
-19z"/>
<path d="M2561 2504 c-7 -8 -10 -18 -7 -21 7 -7 36 16 36 28 0 13 -13 10 -29
-7z"/>
<path d="M1007 2503 c-10 -9 -9 -23 2 -23 5 0 11 7 15 15 5 15 -5 20 -17 8z"/>
<path d="M897 2486 c-6 -15 22 -46 41 -46 18 0 65 20 60 26 -3 2 -17 0 -32 -6
-15 -5 -33 -7 -39 -3 -7 5 0 10 17 13 16 3 31 11 34 18 6 18 -74 16 -81 -2z"/>
<path d="M2520 2491 c0 -5 5 -13 10 -16 6 -3 10 -2 10 4 0 5 -4 13 -10 16 -5
3 -10 2 -10 -4z"/>
<path d="M753 2478 c-13 -22 -12 -38 3 -38 8 0 14 10 14 25 0 28 -5 31 -17 13z"/>
<path d="M2450 2471 c0 -6 4 -13 10 -16 6 -3 7 1 4 9 -7 18 -14 21 -14 7z"/>
<path d="M3206 2452 c-7 -12 12 -80 25 -88 16 -9 27 13 21 41 -5 27 -37 61
-46 47z"/>
<path d="M1371 2384 c0 -11 3 -14 6 -6 3 7 2 16 -1 19 -3 4 -6 -2 -5 -13z"/>
<path d="M710 2290 c-9 -6 -10 -10 -3 -10 6 0 15 5 18 10 8 12 4 12 -15 0z"/>
<path d="M1356 2258 c-3 -13 -1 -27 4 -32 7 -7 10 1 10 22 0 37 -5 41 -14 10z"/>
<path d="M517 2228 c-9 -13 -15 -28 -13 -35 3 -7 1 -13 -4 -13 -6 0 -10 5 -10
10 0 6 -4 10 -10 10 -5 0 -10 -14 -10 -32 0 -30 1 -31 18 -14 9 9 28 27 42 39
28 25 38 57 18 57 -7 0 -21 -10 -31 -22z"/>
<path d="M3470 1916 c0 -18 10 -25 26 -19 20 7 17 20 -6 26 -12 3 -20 0 -20
-7z"/>
<path d="M3665 1640 c-4 -6 6 -23 22 -38 15 -15 38 -41 50 -57 12 -17 22 -25
22 -20 1 6 -13 26 -29 45 -17 19 -33 45 -36 58 -7 23 -19 29 -29 12z"/>
</g>
</svg>
